# xmcd
#
# Track frame offsets:
#	150
#	18002
#	32735
#	47233
#	62187
#	78044
#	95374
#	107826
#	121488
#
# Disc length: 1800 seconds
#
# Revision: 1
# Processed by: cddbd v1.5.2PL0 Copyright (c) Steve Scherf et al.
# Submitted via: audiograbber 1.83.01
#
DISCID=69070609
DTITLE=Various Artist - SSC455 Singer Solution Country
DYEAR=2017
DGENRE=Country
TTITLE0=SSC455-01 - Scott McCreey - Five More Minutes
TTITLE1=SSC455-02 - Maren Morris - I Could Use A Love Song
TTITLE2=SSC455-03 - Kane Brown and Laura Alalna - What Ifs
TTITLE3=SSC455-04 - Dylan Scott - My Girl
TTITLE4=SSC455-05 - Dustin Lynch - Small Town Boy
TTITLE5=SSC455-06 - Billy Currington - Do I Make You Wanna
TTITLE6=SSC455-07 - Justin Moore - Somebody Else Will
TTITLE7=SSC455-08 - Chris Stapleton - Them Stems
TTITLE8=SSC455-09 - Old Dominion - No Such Thing As A Broken Heart
EXTD=
EXTT0=
EXTT1=
EXTT2=
EXTT3=
EXTT4=
EXTT5=
EXTT6=
EXTT7=
EXTT8=
PLAYORDER=
